HIERARCHY
ROOT hip
{
	OFFSET 0.000000 0.000000 0.000000 
	CHANNELS 6 Xposition Yposition Zposition Xrotation Zrotation Yrotation
	JOINT abdomen
	{
		OFFSET 0.000000 3.402643 0.000000 
		CHANNELS 3 Xrotation Zrotation Yrotation
		JOINT chest
		{
			OFFSET 0.000000 8.438565 -0.680529 
			CHANNELS 3 Xrotation Zrotation Yrotation
			JOINT neck
			{
				OFFSET 0.000000 10.207942 -0.272212 
				CHANNELS 3 Xrotation Zrotation Yrotation
				JOINT head
				{
					OFFSET 0.000000 3.130431 0.000000 
					CHANNELS 3 Xrotation Zrotation Yrotation
					End Site
					{
						OFFSET 0.000000 3.130435 0.000000 
					}
				}
			}
			JOINT lCollar
			{
				OFFSET 3.470700 6.669187 -0.816635 
				CHANNELS 3 Yrotation Zrotation Xrotation
				JOINT lShldr
				{
					OFFSET 3.198488 0.000000 0.000000 
					CHANNELS 3 Zrotation Yrotation Xrotation
					JOINT lForeArm
					{
						OFFSET 10.139888 0.000000 0.000000 
						CHANNELS 3 Yrotation Zrotation Xrotation
						JOINT lHand
						{
							OFFSET 8.370511 0.000000 0.000000 
							CHANNELS 3 Zrotation Yrotation Xrotation
							End Site
							{
								OFFSET 4.083176 0.000000 0.000000 
							}
						}
					}
				}
			}
			JOINT rCollar
			{
				OFFSET -3.470700 6.669187 -0.816635 
				CHANNELS 3 Yrotation Zrotation Xrotation
				JOINT rShldr
				{
					OFFSET -3.198488 0.000000 0.000000 
					CHANNELS 3 Zrotation Yrotation Xrotation
					JOINT rForeArm
					{
						OFFSET -10.139888 0.000000 0.000000 
						CHANNELS 3 Yrotation Zrotation Xrotation
						JOINT rHand
						{
							OFFSET -8.370511 0.000000 0.000000 
							CHANNELS 3 Zrotation Yrotation Xrotation
							End Site
							{
								OFFSET -4.083176 0.000000 0.000000 
							}
						}
					}
				}
			}
		}
	}
	JOINT lThigh
	{
		OFFSET 5.308129 -1.633274 1.361059 
		CHANNELS 3 Xrotation Zrotation Yrotation
		JOINT lShin
		{
			OFFSET -2.041588 -20.007561 0.000000 
			CHANNELS 3 Xrotation Zrotation Yrotation
			JOINT lFoot
			{
				OFFSET 0.000000 -19.190928 -1.224953 
				CHANNELS 3 Xrotation Yrotation Zrotation
				End Site
				{
					OFFSET 0.000000 -2.449906 4.627600 
				}
			}
		}
	}
	JOINT rThigh
	{
		OFFSET -5.308129 -1.633274 1.361059 
		CHANNELS 3 Xrotation Zrotation Yrotation
		JOINT rShin
		{
			OFFSET 2.041588 -20.007561 0.000000 
			CHANNELS 3 Xrotation Zrotation Yrotation
			JOINT rFoot
			{
				OFFSET 0.000000 -19.190928 -1.224953 
				CHANNELS 3 Xrotation Yrotation Zrotation
				End Site
				{
					OFFSET 0.000000 -2.449906 4.627600 
				}
			}
		}
	}
}
MOTION
Frames: 10
Frame Time: 0.033333
0.143147 42.420631 -2.622844 0.000000 0.000000 0.000000 -14.682544 1.029200 -9.952707 14.891870 8.429811 -28.915489 17.799616 3.078978 -10.835977 10.526902 0.517578 -0.048826 -23.782406 -6.680074 -25.000000 -38.035446 -26.235415 -7.449380 -45.041019 -2.610226 2.049165 36.822296 -16.550905 -91.419540 27.637440 -5.212460 -22.519331 75.351204 13.843527 18.356441 74.517647 3.072898 1.390877 15.465534 40.660404 46.900650 -17.751364 7.518425 1.416658 21.533989 -1.309211 -2.803497 -2.492145 13.930796 -5.431556 2.448476 -11.723370 -21.365715 18.491837 1.372750 2.561806 -15.905386 -5.742147 9.733154 
0.143147 42.420631 -2.622844 0.000000 0.000000 0.000000 -14.682544 1.029200 -9.952707 14.012712 7.938361 -29.044559 17.542337 4.327958 -14.641803 10.526902 0.517578 -0.048826 -27.777397 -6.648089 -25.000000 -44.164219 -9.712983 -5.530560 -69.377640 -3.024786 1.519387 39.313591 -10.220242 -81.232544 23.643591 -5.180460 -22.535477 72.515350 3.304294 22.538179 85.662399 3.161798 1.092781 15.465534 40.660404 46.900650 -17.630470 7.653546 1.403108 21.759542 -1.302909 -2.804079 -2.794025 13.905540 -5.579626 2.799173 -11.546535 -21.413322 18.266088 1.382467 2.551742 -16.064116 -5.737617 9.699693 
0.143147 42.420631 -2.622844 0.000000 0.000000 0.000000 -14.682544 1.029200 -9.952707 13.123749 7.458161 -29.156630 17.213276 5.550587 -18.458450 10.526902 0.517578 -0.048826 -31.778299 -6.623119 -24.999605 -49.695000 6.905496 -5.391064 -93.712021 -3.201737 0.862625 42.853359 -4.434418 -70.912796 19.640749 -5.146824 -22.552898 68.901978 -6.993560 27.258150 96.826958 3.181229 0.779655 15.465534 40.660404 46.900650 -17.506559 7.791700 1.390477 21.973360 -1.293375 -2.861921 -3.107159 13.916308 -5.712236 3.149617 -11.379204 -21.460848 18.030521 1.392164 2.541144 -16.210709 -5.761590 9.650467 
0.143147 42.420631 -2.622844 0.000000 0.000000 0.000000 -14.682544 1.029200 -9.952707 13.239210 7.519279 -29.141129 17.260592 5.389938 -17.952688 10.526902 0.517578 -0.048826 -31.248747 -6.622585 -24.999569 -48.858894 5.066408 -5.435216 -91.166626 -3.193066 0.932286 42.520809 -4.904120 -71.966461 20.163639 -5.149231 -22.552763 69.517639 -5.690125 26.572811 95.352249 3.192456 0.817117 15.465534 40.660404 46.900650 -17.525875 7.772021 1.392293 21.954161 -1.293357 -2.851208 -3.062010 13.896056 -5.683737 3.090731 -11.398228 -21.450483 18.059883 1.392201 2.542642 -16.190908 -5.755258 9.676473 
0.143147 42.420631 -2.622844 0.000000 0.000000 0.000000 -14.682544 1.029200 -9.952707 13.359674 7.588948 -29.125666 17.304916 5.227878 -17.447075 10.526902 0.517578 -0.048826 -30.723560 -6.625303 -25.000000 -48.019279 3.229144 -5.508764 -88.617859 -3.191081 1.000190 42.203407 -5.390996 -73.017593 20.695484 -5.155987 -22.548120 70.118706 -4.367846 25.905378 93.874260 3.192947 0.855197 15.465534 40.660404 46.900650 -17.545158 7.752321 1.394112 21.925190 -1.293322 -2.840000 -3.025349 13.902534 -5.674805 3.054458 -11.422554 -21.451109 18.090286 1.382477 2.533068 -16.182943 -5.740351 9.661842 
0.143147 42.420631 -2.622844 0.000000 0.000000 0.000000 -14.682544 1.029200 -9.952707 13.550202 7.693491 -29.104481 17.383652 4.951881 -16.596161 10.526902 0.517578 -0.048826 -29.832426 -6.631879 -25.000000 -46.698654 -0.035613 -5.619960 -84.018005 -3.163869 1.127062 41.565968 -6.317984 -74.985794 21.589666 -5.167400 -22.541588 71.034271 -2.111980 24.822283 91.394547 3.185134 0.930143 15.465534 40.660404 46.900650 -17.569565 7.720711 1.396408 21.876667 -1.293265 -2.827800 -2.954118 13.901596 -5.650198 2.977311 -11.472829 -21.442938 18.149000 1.382545 2.536060 -16.143740 -5.734156 9.677111 
0.143147 42.420631 -2.622844 0.000000 0.000000 0.000000 -14.682544 1.029200 -9.952707 13.747120 7.807353 -29.073780 17.460897 4.681581 -15.747252 10.526902 0.517578 -0.048826 -28.936943 -6.639829 -25.000000 -45.373848 -3.304384 -5.804863 -79.409103 -3.135881 1.254454 40.956047 -7.265646 -76.946617 22.477468 -5.171479 -22.538364 71.913284 0.163498 23.779205 88.899467 3.174005 0.999487 15.465534 40.660404 46.900650 -17.588764 7.700984 1.398236 21.817686 -1.299348 -2.825878 -2.880984 13.906898 -5.612066 2.900138 -11.513526 -21.423878 18.197594 1.382384 2.548250 -16.112350 -5.750228 9.691680 
0.143147 42.420631 -2.622844 0.000000 0.000000 0.000000 -14.682544 1.029200 -9.952707 13.932849 7.903468 -29.051514 17.529964 4.425516 -14.957040 10.526902 0.517578 -0.048826 -28.107822 -6.653544 -25.000000 -44.206547 -6.572112 -5.960726 -74.712929 -3.087028 1.376838 40.399666 -8.416256 -78.798409 23.313112 -5.172919 -22.528170 72.612663 2.304335 22.856073 86.599449 3.161897 1.061398 15.465534 40.660404 46.900650 -17.621859 7.673652 1.401385 21.779444 -1.302941 -2.795353 -2.824763 13.914262 -5.594216 2.817572 -11.534724 -21.413073 18.246519 1.382444 2.550744 -16.083227 -5.744750 9.695347 
0.143147 42.420631 -2.622844 0.000000 0.000000 0.000000 -14.682544 1.029200 -9.952707 14.118650 7.999627 -29.029331 17.591698 4.166622 -14.168653 10.526902 0.517578 -0.048826 -27.286514 -6.657330 -24.998884 -43.020668 -9.827986 -6.182289 -70.013519 -3.037270 1.497881 39.880802 -9.582776 -80.643562 24.134857 -5.185139 -22.523737 73.278610 4.462876 21.959602 84.306145 3.157128 1.122994 15.465534 40.660404 46.900650 -17.665510 7.646345 1.404701 21.729851 -1.303065 -2.812346 -2.763899 13.937940 -5.558640 2.753036 -11.571059 -21.413445 18.296480 1.372740 2.542148 -16.055574 -5.726000 9.694250 
0.143147 42.420631 -2.622844 0.000000 0.000000 0.000000 -14.682544 1.029200 -9.952707 14.270248 8.087291 -29.005873 17.633438 3.959956 -13.509198 10.526902 0.517578 -0.048826 -26.590204 -6.660950 -25.000000 -42.061474 -12.827580 -6.352150 -65.581215 -2.983113 1.606098 39.468609 -10.846094 -82.266502 24.833838 -5.186296 -22.527237 73.766449 6.309425 21.224203 82.359810 3.143983 1.179821 15.465534 40.660404 46.900650 -17.667833 7.613617 1.416473 21.690596 -1.299402 -2.819465 -2.704023 13.910425 -5.535783 2.693321 -11.598184 -21.403772 18.335270 1.372776 2.553867 -16.023857 -5.744216 9.707865 
